<svg width="23" height="23" viewBox="0 0 23 23" fill="none" xmlns="http://www.w3.org/2000/svg">
<path d="M6.49771 13.1377L5.13103 19.0557C5.08871 19.2349 5.10141 19.4227 5.16748 19.5945C5.23355 19.7664 5.34992 19.9143 5.50138 20.0191C5.65284 20.1238 5.83236 20.1804 6.01648 20.1814C6.20061 20.1825 6.38078 20.1281 6.53348 20.0252L11.5278 16.6956L16.5222 20.0252C16.6784 20.1289 16.8627 20.1823 17.0501 20.1782C17.2376 20.1741 17.4194 20.1127 17.5709 20.0022C17.7225 19.8917 17.8365 19.7375 17.8978 19.5602C17.9591 19.383 17.9646 19.1912 17.9136 19.0107L16.236 13.1404L20.3966 9.39628C20.5298 9.27629 20.625 9.11988 20.6703 8.94638C20.7156 8.77289 20.709 8.58992 20.6515 8.4201C20.5939 8.25029 20.4878 8.10107 20.3463 7.99091C20.2048 7.88075 20.0341 7.81448 19.8554 7.80029L14.6262 7.38386L12.3634 2.37485C12.2913 2.21356 12.174 2.0766 12.0257 1.98049C11.8774 1.88439 11.7045 1.83325 11.5278 1.83325C11.3511 1.83325 11.1782 1.88439 11.0299 1.98049C10.8817 2.0766 10.7644 2.21356 10.6922 2.37485L8.4294 7.38386L3.20025 7.79937C3.02456 7.81329 2.8566 7.87753 2.71646 7.98441C2.57632 8.09128 2.46994 8.23627 2.41005 8.40202C2.35015 8.56777 2.33928 8.74727 2.37872 8.91904C2.41817 9.09081 2.50627 9.24758 2.63248 9.37059L6.49771 13.1377V13.1377ZM9.11458 9.16972C9.2783 9.15682 9.43553 9.10012 9.5698 9.00555C9.70407 8.91098 9.81042 8.78203 9.87771 8.63222L11.5278 4.98071L13.1779 8.63222C13.2452 8.78203 13.3516 8.91098 13.4858 9.00555C13.6201 9.10012 13.7773 9.15682 13.9411 9.16972L17.5843 9.45865L14.584 12.159C14.3235 12.3938 14.2199 12.7552 14.3153 13.0927L15.4646 17.1148L12.0378 14.83C11.8874 14.729 11.7103 14.6751 11.5292 14.6751C11.348 14.6751 11.171 14.729 11.0206 14.83L7.43971 17.2175L8.4028 13.0478C8.43811 12.8944 8.43338 12.7346 8.38904 12.5836C8.3447 12.4326 8.26226 12.2955 8.14965 12.1856L5.36309 9.46874L9.11458 9.16972V9.16972Z" fill="#F3CD03"/>
</svg>
