<svg width="23" height="23" viewBox="0 0 23 23" fill="none" xmlns="http://www.w3.org/2000/svg">
<path d="M20.6116 8.41927C20.554 8.24946 20.4479 8.10025 20.3064 7.99006C20.1649 7.87987 19.9942 7.81353 19.8155 7.79922L14.5863 7.38371L12.3235 2.3747C12.2515 2.21337 12.1342 2.07634 11.986 1.98016C11.8378 1.88397 11.6649 1.83274 11.4882 1.83264C11.3115 1.83254 11.1386 1.88359 10.9902 1.97961C10.8419 2.07563 10.7246 2.21253 10.6523 2.37378L8.3895 7.38371L3.16035 7.79922C2.98466 7.81314 2.8167 7.87738 2.67656 7.98425C2.53642 8.09113 2.43004 8.23612 2.37015 8.40187C2.31025 8.56762 2.29938 8.74712 2.33882 8.91889C2.37827 9.09066 2.46637 9.24743 2.59258 9.37044L6.45689 13.1375L5.09021 19.0555C5.04871 19.2347 5.06201 19.4221 5.12838 19.5936C5.19476 19.7651 5.31114 19.9127 5.46242 20.0172C5.61371 20.1217 5.79292 20.1783 5.97679 20.1797C6.16067 20.1811 6.34072 20.1272 6.49358 20.025L11.4879 16.6955L16.4823 20.025C16.6385 20.1288 16.8228 20.1822 17.0102 20.1781C17.1977 20.1739 17.3795 20.1125 17.531 20.002C17.6826 19.8916 17.7966 19.7373 17.8579 19.5601C17.9192 19.3828 17.9247 19.1911 17.8737 19.0106L16.1961 13.1403L20.3567 9.39612C20.6291 9.15031 20.7291 8.7669 20.6116 8.41927V8.41927Z" fill="#F3CD03"/>
</svg>
