<svg width="23" height="23" viewBox="0 0 23 23" fill="none" xmlns="http://www.w3.org/2000/svg">
<path d="M20.6366 8.41927C20.579 8.24946 20.4729 8.10025 20.3314 7.99006C20.1899 7.87987 20.0192 7.81353 19.8405 7.79922L14.6113 7.38371L12.3485 2.3747C12.2764 2.21337 12.1592 2.07634 12.011 1.98016C11.8628 1.88397 11.6899 1.83274 11.5132 1.83264C11.3365 1.83254 11.1636 1.88359 11.0152 1.97961C10.8669 2.07563 10.7495 2.21253 10.6773 2.37378L8.41448 7.38371L3.18533 7.79922C3.00964 7.81314 2.84167 7.87738 2.70154 7.98425C2.5614 8.09113 2.45502 8.23612 2.39512 8.40187C2.33523 8.56762 2.32435 8.74712 2.3638 8.91889C2.40325 9.09066 2.49135 9.24743 2.61756 9.37044L6.48187 13.1375L5.11519 19.0555C5.07369 19.2347 5.08699 19.4221 5.15336 19.5936C5.21974 19.7651 5.33612 19.9127 5.4874 20.0172C5.63869 20.1217 5.8179 20.1783 6.00177 20.1797C6.18565 20.1811 6.36569 20.1272 6.51856 20.025L11.5129 16.6955L16.5072 20.025C16.6635 20.1288 16.8477 20.1822 17.0352 20.1781C17.2227 20.1739 17.4045 20.1125 17.556 20.002C17.7075 19.8916 17.8216 19.7373 17.8829 19.5601C17.9441 19.3828 17.9497 19.1911 17.8987 19.0106L16.2211 13.1403L20.3816 9.39612C20.6541 9.15031 20.754 8.7669 20.6366 8.41927V8.41927Z" fill="#F3CD03"/>
</svg>
