<svg width="9" height="17" viewBox="0 0 9 17" fill="none" xmlns="http://www.w3.org/2000/svg">
<g clip-path="url(#clip0_3_141)">
<path fill-rule="evenodd" clip-rule="evenodd" d="M0.180771 1.14055C0.237928 1.08325 0.305828 1.03778 0.380583 1.00676C0.455337 0.975745 0.535477 0.959778 0.616412 0.959778C0.697347 0.959778 0.777487 0.975745 0.852241 1.00676C0.926996 1.03778 0.994896 1.08325 1.05205 1.14055L8.4358 8.5243C8.4931 8.58145 8.53857 8.64936 8.56959 8.72411C8.60061 8.79887 8.61657 8.879 8.61657 8.95994C8.61657 9.04087 8.60061 9.12101 8.56959 9.19577C8.53857 9.27052 8.4931 9.33842 8.4358 9.39558L1.05205 16.7793C0.936514 16.8949 0.779809 16.9598 0.616412 16.9598C0.453015 16.9598 0.29631 16.8949 0.180771 16.7793C0.0652316 16.6638 0.000322157 16.5071 0.000322157 16.3437C0.000322157 16.1803 0.0652316 16.0236 0.180771 15.908L7.13011 8.95994L0.180771 2.01183C0.123469 1.95467 0.078006 1.88677 0.0469863 1.81202C0.0159666 1.73726 0 1.65713 0 1.57619C0 1.49526 0.0159666 1.41512 0.0469863 1.34036C0.078006 1.26561 0.123469 1.19771 0.180771 1.14055V1.14055Z" fill="#FF685B"/>
</g>
<defs>
<clipPath id="clip0_3_141">
<rect width="9" height="16" fill="white" transform="translate(0 0.959778)"/>
</clipPath>
</defs>
</svg>
